<?xml version="1.0" standalone="no"?>
<!DOCTYPE svg PUBLIC "-//W3C//DTD SVG 20010904//EN"
 "http://www.w3.org/TR/2001/REC-SVG-20010904/DTD/svg10.dtd">
<svg version="1.0" xmlns="http://www.w3.org/2000/svg"
 width="700.000000pt" height="700.000000pt" viewBox="0 0 700.000000 700.000000"
 preserveAspectRatio="xMidYMid meet">
<metadata>
Created by potrace 1.11, written by Peter Selinger 2001-2013
</metadata>
<g transform="translate(0.000000,700.000000) scale(0.100000,-0.100000)"
fill="#000000" stroke="none">
<path d="M3285 6984 c-492 -40 -891 -148 -1310 -354 -369 -181 -655 -388 -952
-691 -201 -205 -347 -394 -500 -646 -685 -1137 -651 -2591 88 -3703 142 -212
250 -343 453 -545 376 -374 757 -618 1260 -804 372 -138 758 -205 1186 -205
542 0 1019 107 1506 339 957 455 1665 1350 1894 2397 56 255 74 432 74 733 1
413 -45 713 -165 1082 -417 1285 -1548 2214 -2894 2378 -125 15 -536 27 -640
19z m3026 -3023 c18 -14 24 -29 24 -61 0 -32 -6 -47 -24 -61 -13 -10 -31 -19
-40 -18 -11 0 -9 3 6 9 12 5 30 21 39 35 16 24 16 29 1 60 -28 58 -103 57
-129 -1 -15 -32 4 -72 42 -91 17 -8 19 -13 9 -13 -35 0 -64 36 -64 80 0 51 30
80 80 80 18 0 43 -9 56 -19z m-5361 -421 l0 -430 -80 0 -80 0 0 430 0 430 80
0 80 0 0 -430z m767 151 c138 -121 254 -221 257 -221 3 0 6 113 6 250 l0 250
80 0 80 0 0 -425 c0 -234 -2 -425 -5 -425 -2 0 -132 106 -287 235 l-283 234
-3 -239 -2 -240 -80 0 -80 0 0 432 0 432 33 -31 c17 -16 145 -130 284 -252z
m1076 22 c67 -139 126 -255 129 -259 4 -3 64 111 134 255 l127 261 89 0 90 0
-214 -421 c-118 -231 -218 -421 -222 -422 -4 -1 -104 188 -222 421 l-215 423
91 -3 90 -3 123 -252z m1077 -173 l0 -430 -80 0 -80 0 0 430 0 430 80 0 80 0
0 -430z m973 415 c32 -8 76 -24 99 -36 54 -28 143 -113 175 -167 85 -145 82
-333 -6 -471 -35 -55 -107 -125 -146 -143 -14 -6 -25 -15 -25 -19 0 -5 31 -58
70 -119 l69 -110 -92 0 -93 0 -50 88 -50 87 -70 6 c-140 13 -218 48 -309 138
-99 98 -146 242 -125 378 42 262 301 434 553 368z m1247 -392 c106 -219 199
-410 207 -425 l14 -28 -86 0 -85 0 -32 68 -33 67 -185 0 -184 0 -33 -67 -33
-68 -84 0 -85 0 176 358 c96 196 189 387 207 424 17 37 34 67 37 68 3 0 93
-179 199 -397z m185 373 c16 -11 17 -17 7 -29 -7 -8 -10 -23 -6 -33 5 -18 5
-18 -9 -1 -19 23 -35 21 -40 -5 -2 -13 -5 1 -6 30 -1 44 2 52 17 52 10 0 27
-6 37 -14z"/>
<path d="M4675 3801 c-93 -24 -163 -82 -203 -169 -21 -46 -24 -65 -20 -126 6
-83 29 -134 85 -188 54 -52 115 -78 188 -78 83 0 126 14 184 60 129 102 145
292 35 410 -68 73 -186 113 -269 91z"/>
<path d="M5861 3589 c-16 -35 -43 -95 -60 -132 -17 -38 -31 -71 -31 -73 0 -2
54 -4 120 -4 66 0 120 4 120 9 0 10 -108 252 -115 260 -3 2 -18 -25 -34 -60z"/>
<path d="M6230 3915 c0 -10 7 -15 18 -13 21 4 19 22 -2 26 -10 2 -16 -3 -16
-13z"/>
</g>
</svg>
